<svg xmlns="http://www.w3.org/2000/svg" version="1.1" xmlns:xlink="http://www.w3.org/1999/xlink" xmlns:svgjs="http://svgjs.dev/svgjs" width="1000" height="305" viewBox="0 0 1000 305"><g transform="matrix(1,0,0,1,8.586021293290457,11.49728353099755)"><svg viewBox="0 0 396 121" data-background-color="#161618" preserveAspectRatio="xMidYMid meet" height="305" width="1000" xmlns="http://www.w3.org/2000/svg" xmlns:xlink="http://www.w3.org/1999/xlink"><g id="tight-bounds" transform="matrix(1,0,0,1,0.6002438310774778,0.9184218970919744)"><svg viewBox="0 0 395.52 119.5891665485904" height="119.5891665485904" width="395.52"><g><svg viewBox="0 0 590.0002349802703 178.3920822329162" height="119.5891665485904" width="395.52"><g transform="matrix(1,0,0,1,194.48023498027035,55.12574275264676)"><svg viewBox="0 0 395.52 68.1405967276227" height="68.1405967276227" width="395.52"><g><svg viewBox="0 0 395.52 68.1405967276227" height="68.1405967276227" width="395.52"><g><svg viewBox="0 0 395.52 68.1405967276227" height="68.1405967276227" width="395.52"><g transform="matrix(1,0,0,1,0,0)"><svg width="395.52" viewBox="5.25 -35.4 207.79 35.8" height="68.1405967276227" data-palette-color="#ffffff"><path d="M18.9-35Q25.7-35 29.6-31.75 33.5-28.5 33.5-22.8L33.5-22.8Q33.5-17.1 29.6-13.85 25.7-10.6 18.9-10.6L18.9-10.6 10.25-10.6 10.25 0 5.25 0 5.25-35 18.9-35ZM18.75-14.95Q23.5-14.95 26-16.98 28.5-19 28.5-22.8L28.5-22.8Q28.5-26.6 26-28.63 23.5-30.65 18.75-30.65L18.75-30.65 10.25-30.65 10.25-14.95 18.75-14.95ZM57.15 0.4Q51.85 0.4 47.6-1.93 43.35-4.25 40.92-8.35 38.5-12.45 38.5-17.5L38.5-17.5Q38.5-22.55 40.92-26.65 43.35-30.75 47.6-33.08 51.85-35.4 57.15-35.4L57.15-35.4Q62.4-35.4 66.65-33.08 70.9-30.75 73.3-26.68 75.7-22.6 75.7-17.5L75.7-17.5Q75.7-12.4 73.3-8.33 70.9-4.25 66.65-1.93 62.4 0.4 57.15 0.4L57.15 0.4ZM57.15-4.05Q61-4.05 64.07-5.8 67.15-7.55 68.92-10.63 70.7-13.7 70.7-17.5L70.7-17.5Q70.7-21.3 68.92-24.38 67.15-27.45 64.07-29.2 61-30.95 57.15-30.95L57.15-30.95Q53.3-30.95 50.17-29.2 47.05-27.45 45.27-24.38 43.5-21.3 43.5-17.5L43.5-17.5Q43.5-13.7 45.27-10.63 47.05-7.55 50.17-5.8 53.3-4.05 57.15-4.05L57.15-4.05ZM112.19 0L106.75 0 99.19-10.75Q97.8-10.65 97-10.65L97-10.65 88.34-10.65 88.34 0 83.34 0 83.34-35 97-35Q103.8-35 107.69-31.75 111.59-28.5 111.59-22.8L111.59-22.8Q111.59-18.75 109.59-15.9 107.59-13.05 103.89-11.75L103.89-11.75 112.19 0ZM96.84-14.9Q101.59-14.9 104.09-16.95 106.59-19 106.59-22.8L106.59-22.8Q106.59-26.6 104.09-28.63 101.59-30.65 96.84-30.65L96.84-30.65 88.34-30.65 88.34-14.9 96.84-14.9ZM144.54-31.4L142.79-27.45Q137.69-30.35 131.89-30.9L131.89-30.9 131.89 0 126.94 0 126.94-30.9Q121.09-30.35 115.99-27.45L115.99-27.45 114.24-31.4Q120.94-35.4 129.34-35.4L129.34-35.4Q137.84-35.4 144.54-31.4L144.54-31.4ZM163.79-35.4Q170.79-35.4 174.84-31.33 178.89-27.25 178.89-19.65L178.89-19.65 178.89 0 173.89 0 173.89-9.65 153.69-9.65 153.69 0 148.79 0 148.79-19.65Q148.79-27.25 152.84-31.33 156.89-35.4 163.79-35.4L163.79-35.4ZM153.69-14L173.89-14 173.89-20.1Q173.89-25.45 171.22-28.2 168.54-30.95 163.79-30.95L163.79-30.95Q159.04-30.95 156.37-28.2 153.69-25.45 153.69-20.1L153.69-20.1 153.69-14ZM189.09 0L189.09-35 194.09-35 194.09-4.35 213.04-4.35 213.04 0 189.09 0Z" opacity="1" transform="matrix(1,0,0,1,0,0)" fill="#ffffff" class="undefined-text-0" data-fill-palette-color="primary" id="text-0"></path></svg></g></svg></g></svg></g></svg></g><g><svg viewBox="0 0 178.3938754672001 178.3920822329162" height="178.3920822329162" width="178.3938754672001"><g><svg xmlns="http://www.w3.org/2000/svg" viewBox="8.918530041238219 8.917885993121288 82.16293991752357 82.16211400687871" x="0" y="0" height="178.3920822329162" width="178.3938754672001" class="icon-icon-0" data-fill-palette-color="accent" id="icon-0"><g data-name="Ebene 1" fill="#ffffff" data-fill-palette-color="accent"><path d="M91 49.91a2 2 0 0 0-4 0A19.07 19.07 0 0 1 81 62.2a14.53 14.53 0 0 1-11.43 3.94 13.18 13.18 0 0 1-9.37-5.69c-0.23-0.32-0.44-0.66-0.64-1a23.51 23.51 0 0 0 5.84-1 2.07 2.07 0 0 0 1.3-1.25 2 2 0 0 0-1.25-2.64 18.42 18.42 0 0 1-2.18-1 27.17 27.17 0 0 0 5.51-4.38 25.69 25.69 0 0 0 5.56-8.69 23.46 23.46 0 0 0 1.49-10.06A22.61 22.61 0 0 0 73 21a23.31 23.31 0 0 0-6.23-7.12A24.67 24.67 0 0 0 49.92 9a2 2 0 0 0 0 4A19.07 19.07 0 0 1 62.2 19a14.55 14.55 0 0 1 3.94 11.43 13.18 13.18 0 0 1-5.69 9.37c-0.32 0.23-0.66 0.44-1 0.64a23.51 23.51 0 0 0-1-5.84 2.05 2.05 0 0 0-3.89-0.05 20.19 20.19 0 0 1-1 2.18 27.17 27.17 0 0 0-4.38-5.51 25.69 25.69 0 0 0-8.69-5.56 23.46 23.46 0 0 0-10.06-1.49A22.61 22.61 0 0 0 21 27a23.44 23.44 0 0 0-7.12 6.23A24.72 24.72 0 0 0 9 50.09a2 2 0 0 0 1.81 1.82 2 2 0 0 0 1.47-0.45A2.06 2.06 0 0 0 13 50.09 19.07 19.07 0 0 1 19 37.8a14.53 14.53 0 0 1 11.43-3.94 13.18 13.18 0 0 1 9.37 5.69c0.23 0.32 0.44 0.66 0.64 1a23.51 23.51 0 0 0-5.84 1 2.07 2.07 0 0 0-1.3 1.25 2 2 0 0 0 1.25 2.64 18.42 18.42 0 0 1 2.18 1 27.17 27.17 0 0 0-5.51 4.38 25.69 25.69 0 0 0-5.56 8.69 23.46 23.46 0 0 0-1.49 10.06A22.75 22.75 0 0 0 27 79a23.31 23.31 0 0 0 6.23 7.12A24.58 24.58 0 0 0 48 91.08c0.69 0 1.38 0 2.06-0.08a2 2 0 0 0 0-4A19.07 19.07 0 0 1 37.8 81a14.55 14.55 0 0 1-3.94-11.43 13.18 13.18 0 0 1 5.69-9.37c0.32-0.23 0.66-0.44 1-0.64a23.51 23.51 0 0 0 1 5.84 2.05 2.05 0 0 0 3.89 0 18.42 18.42 0 0 1 1-2.18 27.17 27.17 0 0 0 4.38 5.51 25.69 25.69 0 0 0 8.69 5.56 23.3 23.3 0 0 0 10.06 1.49A22.61 22.61 0 0 0 79 73a23.44 23.44 0 0 0 7.12-6.23A24.72 24.72 0 0 0 91 49.91ZM84.55 65.58A21.51 21.51 0 0 1 78 71.28a20.59 20.59 0 0 1-8.62 2.59 21.36 21.36 0 0 1-9.2-1.35 23.86 23.86 0 0 1-8-5.14 25.36 25.36 0 0 1-4.85-6.52l-0.79-1.49-0.93 1.4a19.07 19.07 0 0 0-2.06 4h-0.1A21.06 21.06 0 0 1 42.53 58l0-1.57-1.44 0.64a15.72 15.72 0 0 0-2.72 1.53 15.11 15.11 0 0 0-6.53 10.78 16.57 16.57 0 0 0 4.44 13A21.12 21.12 0 0 0 49.91 89a22.59 22.59 0 0 1-15.49-4.45A21.38 21.38 0 0 1 28.72 78a20.59 20.59 0 0 1-2.59-8.62 21.36 21.36 0 0 1 1.35-9.2 23.86 23.86 0 0 1 5.14-8 25.36 25.36 0 0 1 6.52-4.85l1.49-0.79-1.4-0.93a18.89 18.89 0 0 0-4-2l0-0.11h0a21.13 21.13 0 0 1 6.35-0.95H42l1.57 0-0.64-1.44a15.72 15.72 0 0 0-1.53-2.72 15.11 15.11 0 0 0-10.78-6.53 16.57 16.57 0 0 0-13 4.44A21.12 21.12 0 0 0 11 49.91a22.59 22.59 0 0 1 4.45-15.49A21.51 21.51 0 0 1 22 28.72a20.59 20.59 0 0 1 8.62-2.59 21.36 21.36 0 0 1 9.2 1.35 23.86 23.86 0 0 1 8 5.14 25.36 25.36 0 0 1 4.85 6.52l0.79 1.49 0.93-1.4a19.07 19.07 0 0 0 2.06-4h0.1A21.06 21.06 0 0 1 57.47 42l0 1.57 1.44-0.64a15.72 15.72 0 0 0 2.72-1.53 15.11 15.11 0 0 0 6.53-10.78 16.57 16.57 0 0 0-4.44-13A21.12 21.12 0 0 0 50.09 11a22.59 22.59 0 0 1 15.49 4.45A21.24 21.24 0 0 1 71.28 22a20.59 20.59 0 0 1 2.59 8.62 21.36 21.36 0 0 1-1.35 9.2 23.86 23.86 0 0 1-5.14 8 25.36 25.36 0 0 1-6.52 4.85l-1.49 0.79 1.4 0.93a18.89 18.89 0 0 0 4 2l0 0.11h0a21 21 0 0 1-6.83 0.95l-1.57 0 0.64 1.44a15.72 15.72 0 0 0 1.53 2.72 15.11 15.11 0 0 0 10.78 6.53 16.56 16.56 0 0 0 13-4.44A21.12 21.12 0 0 0 89 50.08h0A22.59 22.59 0 0 1 84.55 65.58ZM28.88 23.22h0a12.23 12.23 0 0 1 8.84-2.13 9.08 9.08 0 0 1 3.65 1.41A7.33 7.33 0 0 1 43.67 25a5.92 5.92 0 0 0 1.55 1.79A5.82 5.82 0 0 0 48.79 28a5.88 5.88 0 0 0 3.6-10.53L51.82 17a17.75 17.75 0 0 0-25.31 3.81 1.71 1.71 0 0 0 2.37 2.39Zm8.92-7.55a15.64 15.64 0 0 1 12.8 2.94l0.57 0.44a3.88 3.88 0 0 1-4.73 6.14 4.07 4.07 0 0 1-1-1.19 9.35 9.35 0 0 0-2.91-3.16 11.25 11.25 0 0 0-4.44-1.73A13.07 13.07 0 0 0 36 18.94a14.53 14.53 0 0 0-6.84 1.78A16 16 0 0 1 37.8 15.67ZM22.5 58.62h0A7.43 7.43 0 0 1 25 56.33a5.88 5.88 0 0 0 0.72-9.79 5.9 5.9 0 0 0-8.24 1.07l-0.44 0.57a17.75 17.75 0 0 0 3.81 25.31 1.72 1.72 0 0 0 1 0.3 1.64 1.64 0 0 0 1-0.29 1.7 1.7 0 0 0 0.44-2.39 12.27 12.27 0 0 1-2.12-8.84A8.93 8.93 0 0 1 22.5 58.62ZM20.84 57.5a11.31 11.31 0 0 0-1.73 4.44 14 14 0 0 0 1.62 8.92 15.91 15.91 0 0 1-5.06-8.66 15.64 15.64 0 0 1 2.94-12.8l0.43-0.57a3.9 3.9 0 0 1 3.08-1.51 3.88 3.88 0 0 1 3.07 6.24 4.07 4.07 0 0 1-1.19 1A9.44 9.44 0 0 0 20.84 57.5ZM71.12 76.78h0a12.23 12.23 0 0 1-8.84 2.13 9.08 9.08 0 0 1-3.65-1.41A7.43 7.43 0 0 1 56.33 75a5.89 5.89 0 0 0-9.79-0.72 5.88 5.88 0 0 0 1.07 8.24l0.57 0.44a17.84 17.84 0 0 0 7.12 3.3 17.39 17.39 0 0 0 3.67 0.38 17.7 17.7 0 0 0 3.64-0.37 17.9 17.9 0 0 0 10.88-7.12 1.71 1.71 0 0 0-2.37-2.39ZM62.2 84.33a15.64 15.64 0 0 1-12.8-2.94L48.83 81a3.88 3.88 0 0 1-0.7-5.43 3.88 3.88 0 0 1 5.43-0.71 4.07 4.07 0 0 1 1 1.19 9.44 9.44 0 0 0 2.91 3.16 11.25 11.25 0 0 0 4.44 1.73 14.06 14.06 0 0 0 8.92-1.61A16 16 0 0 1 62.2 84.33ZM77.5 41.38h0A7.33 7.33 0 0 1 75 43.67a5.88 5.88 0 1 0 7.52 8.72l0.44-0.57a17.75 17.75 0 0 0-3.81-25.31 1.72 1.72 0 0 0-1.94 0 1.7 1.7 0 0 0-0.44 2.39 12.27 12.27 0 0 1 2.12 8.84A8.93 8.93 0 0 1 77.5 41.38Zm1.66 1.12a11.31 11.31 0 0 0 1.73-4.44 14 14 0 0 0-1.62-8.92 15.91 15.91 0 0 1 5.06 8.66 15.64 15.64 0 0 1-2.94 12.8l-0.43 0.57a3.89 3.89 0 0 1-5.44 0.7 3.87 3.87 0 0 1-0.71-5.43 4.07 4.07 0 0 1 1.19-1A9.44 9.44 0 0 0 79.16 42.5Z" fill="#ffffff" data-fill-palette-color="accent"></path></g></svg></g></svg></g></svg></g><defs></defs></svg><rect width="395.52" height="119.5891665485904" fill="none" stroke="none" visibility="hidden"></rect></g></svg></g></svg>